<?xml version="1.0" encoding="UTF-8"?>
<svg width="84px" height="21px" viewBox="0 0 84 21" version="1.1" xmlns="http://www.w3.org/2000/svg" xmlns:xlink="http://www.w3.org/1999/xlink">
    <!-- Generator: Sketch 56.3 (81716) - https://sketch.com -->
    <title>logo</title>
    <desc>Created with Sketch.</desc>
    <defs>
        <path d="M26.358,17.812 C27.3700051,17.812 28.242663,17.4013374 28.976,16.58 L29.9,17.658 C28.9173284,18.7140053 27.7073405,19.242 26.27,19.242 C25.3019952,19.242 24.4366705,19.0146689 23.674,18.56 C22.9113295,18.1053311 22.3136688,17.4783373 21.881,16.679 C21.4483312,15.8796627 21.232,14.9813383 21.232,13.984 C21.232,12.9866617 21.4483312,12.092004 21.881,11.3 C22.3136688,10.507996 22.9113295,9.88466894 23.674,9.43 C24.4366705,8.97533106 25.2946619,8.748 26.248,8.748 C27.0546707,8.748 27.7879967,8.91299835 28.448,9.243 C29.1080033,9.57300165 29.6433313,10.0313304 30.054,10.618 L29.064,11.586 L29.042,11.608 C28.6166645,11.0506639 28.1803356,10.6583345 27.733,10.431 C27.2856644,10.2036655 26.732,10.09 26.072,10.09 C25.4999971,10.09 24.9683358,10.2476651 24.477,10.563 C23.9856642,10.8783349 23.5933348,11.3219971 23.3,11.894 C23.0066652,12.4660029 22.86,13.1259963 22.86,13.874 C22.86,14.6220037 23.0103318,15.2966637 23.311,15.898 C23.6116682,16.4993363 24.029664,16.968665 24.565,17.306 C25.100336,17.643335 25.6979967,17.812 26.358,17.812 Z M28.8,11.63 C28.8,11.5419996 28.8659993,11.5493328 28.998,11.652 L28.91,11.74 L28.8,11.63 Z M29.042,11.608 C29.1153337,11.7106672 29.1336668,11.7473335 29.097,11.718 C29.0603331,11.6886665 29.0273335,11.6666667 28.998,11.652 L29.042,11.608 Z M38.5,19.176 C37.6053289,19.176 36.8060035,18.9560022 36.102,18.516 C35.3979965,18.0759978 34.848002,17.460004 34.452,16.668 C34.055998,15.875996 33.858,14.9740051 33.858,13.962 C33.858,12.9499949 34.055998,12.048004 34.452,11.256 C34.848002,10.463996 35.3979965,9.84433557 36.102,9.397 C36.8060035,8.94966443 37.6053289,8.726 38.5,8.726 C39.3946711,8.726 40.1939965,8.94966443 40.898,9.397 C41.6020035,9.84433557 42.151998,10.463996 42.548,11.256 C42.944002,12.048004 43.142,12.9499949 43.142,13.962 C43.142,14.9740051 42.944002,15.875996 42.548,16.668 C42.151998,17.460004 41.6020035,18.0759978 40.898,18.516 C40.1939965,18.9560022 39.3946711,19.176 38.5,19.176 Z M38.5,17.856 C39.0720029,17.856 39.5816644,17.687335 40.029,17.35 C40.4763356,17.012665 40.8283321,16.547003 41.085,15.953 C41.341668,15.358997 41.47,14.6880037 41.47,13.94 C41.47,12.7959943 41.1913361,11.8610036 40.634,11.135 C40.0766639,10.4089964 39.3653377,10.046 38.5,10.046 C37.6346623,10.046 36.9233361,10.4089964 36.366,11.135 C35.8086639,11.8610036 35.53,12.7959943 35.53,13.94 C35.53,14.6880037 35.658332,15.358997 35.915,15.953 C36.1716679,16.547003 36.5236644,17.012665 36.971,17.35 C37.4183356,17.687335 37.9279971,17.856 38.5,17.856 Z M51.148,19.22 C50.4293297,19.22 49.7546698,19.0183354 49.124,18.615 C48.4933302,18.2116647 47.980002,17.6066707 47.584,16.8 C47.187998,15.9933293 46.99,15.0180057 46.99,13.874 C46.99,12.7153275 47.1953313,11.7473372 47.606,10.97 C48.0166687,10.1926628 48.5446634,9.61700187 49.19,9.243 C49.8353366,8.86899813 50.5173297,8.682 51.236,8.682 C51.91067,8.682 52.5009975,8.83599846 53.007,9.144 C53.5130025,9.45200154 53.8979987,9.87733062 54.162,10.42 L54.162,4.37 L55.834,4.37 L55.834,4.524 C55.7459996,4.61200044 55.6910001,4.70733282 55.669,4.81 C55.6469999,4.91266718 55.636,5.08866542 55.636,5.338 L55.658,17.438 C55.658,17.7900018 55.6689999,18.0796655 55.691,18.307 C55.7130001,18.5343345 55.7753328,18.7653322 55.878,19 L54.316,19 C54.2133328,18.7653322 54.1510001,18.5343345 54.129,18.307 C54.1069999,18.0796655 54.096,17.7900018 54.096,17.438 C53.7733317,17.9953361 53.3590025,18.4316651 52.853,18.747 C52.3469975,19.0623349 51.7786698,19.22 51.148,19.22 Z M51.39,17.834 C52.2993379,17.834 52.9666645,17.4746703 53.392,16.756 C53.8173355,16.0373297 54.03,15.0913392 54.03,13.918 C54.03,12.7299941 53.7990023,11.7766703 53.337,11.058 C52.8749977,10.3393297 52.1820046,9.98 51.258,9.98 C50.3779956,9.98 49.7033357,10.3063301 49.234,10.959 C48.7646643,11.6116699 48.53,12.502661 48.53,13.632 C48.53,14.9226731 48.7756642,15.9456629 49.267,16.701 C49.7583358,17.4563371 50.4659954,17.834 51.39,17.834 Z M64.984,19.22 C63.4879925,19.22 62.2963378,18.7653379 61.409,17.856 C60.5216622,16.9466621 60.078,15.6633416 60.078,14.006 C60.078,12.9059945 60.2833313,11.9563373 60.694,11.157 C61.1046687,10.3576627 61.6583299,9.74900209 62.355,9.331 C63.0516701,8.91299791 63.8326623,8.704 64.698,8.704 C65.9153394,8.704 66.9016629,9.1073293 67.657,9.914 C68.4123371,10.7206707 68.79,11.9086588 68.79,13.478 C68.79,13.6393341 68.7753335,13.8813317 68.746,14.204 L61.596,14.204 C61.654667,15.4360062 61.9993302,16.3673302 62.63,16.998 C63.2606698,17.6286698 64.0599952,17.944 65.028,17.944 C66.0840053,17.944 66.94933,17.5700037 67.624,16.822 L68.504,17.68 C67.6533291,18.7066718 66.4800075,19.22 64.984,19.22 Z M67.184,12.972 C67.184,12.0333286 66.945669,11.2890028 66.469,10.739 C65.9923309,10.1889973 65.3653372,9.914 64.588,9.914 C63.854663,9.914 63.2166694,10.1706641 62.674,10.684 C62.1313306,11.1973359 61.7940007,11.9599949 61.662,12.972 L67.184,12.972 Z M81.372,11.036 L81.372,11.058 C80.9466645,10.661998 80.5910014,10.3980007 80.305,10.266 C80.0189986,10.1339993 79.6853352,10.068 79.304,10.068 C78.7759974,10.068 78.2773357,10.1999987 77.808,10.464 C77.3386643,10.7280013 76.9573348,11.127664 76.664,11.663 C76.3706652,12.198336 76.224,12.8693293 76.224,13.676 L76.224,19.022 L74.618,19.022 L74.618,8.946 L76.268,8.946 L76.224,10.794 C76.5026681,10.1339967 76.9316638,9.6206685 77.511,9.254 C78.0903362,8.8873315 78.7246632,8.704 79.414,8.704 C80.484672,8.704 81.3719965,9.070663 82.076,9.804 L81.372,11.036 Z M81.372,11.058 C81.4746672,11.1460004 81.5003336,11.1826667 81.449,11.168 C81.3976664,11.1533333 81.3573335,11.1386667 81.328,11.124 L81.372,11.058 Z M81.13,11.124 C81.13,11.0799998 81.1519998,11.0616666 81.196,11.069 C81.2400002,11.0763334 81.2839998,11.0946665 81.328,11.124 L81.284,11.234 L81.13,11.146 L81.13,11.124 Z" id="path-1"></path>
    </defs>
    <g id="Page-1" stroke="none" stroke-width="1" fill="none" fill-rule="evenodd">
        <g id="logo" transform="translate(1.000000, 1.000000)" fill-rule="nonzero">
            <path d="M9,2.49721396 C9.00035024,2.33993857 9.05636909,2.18981266 9.15481236,2.08232962 L9.92810009,1.18049991 C10.0200518,1.06537915 10.1488837,1 10.2837815,1 C10.4186793,1 10.5475112,1.06537915 10.6394629,1.18049991 L17.8452745,9.58488307 C17.9439584,9.69214199 18,9.84239836 18,9.99972637 C18,10.1570544 17.9439584,10.3073108 17.8452745,10.4145697 L10.6396036,18.8196915 C10.5475983,18.9347003 10.4187864,19 10.2839222,19 C10.1490581,19 10.0202462,18.9347003 9.92824083,18.8196915 L9.15481236,17.9183542 C9.05615139,17.8110974 9.00012464,17.6608591 9.00012464,17.503552 C9.00012464,17.3462449 9.05615139,17.1960066 9.15481236,17.0887497 L15.2321123,10.0001778 L9.15481236,2.9120983 C9.05630604,2.80466717 9.00027469,2.6545078 9,2.49721396 Z" id="Path_53" fill="#FFFFFF"></path>
            <path d="M7.62357953,0.256193742 L6.62943683,0.0209007798 C6.50417013,-0.0161244102 6.36818651,-0.00359237559 6.25302965,0.0555898682 C6.13467515,0.110487708 6.04500254,0.207810731 6.00434427,0.325491805 L0.0246028653,18.1900519 C-0.0189533741,18.3027697 -0.00412902124,18.4280401 0.0647244492,18.5290916 C0.13511913,18.6359757 0.247268378,18.7129199 0.377313506,18.7435551 L1.37119957,18.9789282 C1.49642505,19.016164 1.6324771,19.0036836 1.74760675,18.9443993 C1.86563931,18.8893871 1.95505562,18.7921947 1.9956933,18.6747377 L7.9754347,0.809937342 C8.01895554,0.697152676 8.00410134,0.571837988 7.93522757,0.470737342 C7.86507804,0.364000699 7.75329481,0.287047298 7.62357953,0.256193742 Z" id="Path_60" stroke="#FFFFFF" stroke-width="0.5" fill="#FFFFFF"></path>
            <g id="coder">
                <use fill="#000000" xlink:href="#path-1"></use>
                <use stroke="#FFFFFF" stroke-width="0.5" fill="#FFFFFF" xlink:href="#path-1"></use>
            </g>
        </g>
    </g>
</svg>